# xmcd
# 
# Track frame offsets:
#   150
#   19145
#   36485
#   57000
#   71220
#   86072
#   104432
#   121507
#   137652
#   154897
#   171655
#   193197
#   211595
#   225510
#   246252
# 
# Disc length: 3506 seconds
# 
# Revision: 2
# Processed by: cddbd v1.5.2PL0 Copyright (c) Steve Scherf et al.
# Submitted via: Synapstar 1.0 
# 
DISCID=d30db00f
DTITLE=Various Artist - MM-6082
DYEAR=1900
DGENRE=Country
TTITLE0=George Ducas - Lipstick Promises
TTITLE1=Diamond Rio - Bubba Hyde
TTITLE2=Little Texas - Amy's Back In Austin
TTITLE3=Trisha Yearwood - Thinkin' About You
TTITLE4=Tracy Lawrence - As Any Fool Can See
TTITLE5=John Anderson - Bend It Till It Breaks
TTITLE6=Lari White - That's How You Know (When You're In Love)
TTITLE7=Rhette Atkins - I Break For Brunettes
TTITLE8=Rhette Atkins - What They're Talkin' About
TTITLE9=Wade Hayes - Old Enough To Know Better
TTITLE10=Sammy Kershaw - Southbound
TTITLE11=Reba Mcentire - The Heart Is A Lonely Hunter
TTITLE12=Doug Supernaw - What'll You Do About Me
TTITLE13=Toby Keith - Upstairs Downtown
TTITLE14=Neal McCoy - For A Change
EXTD=MediaType: Karaoke CD+G Producer: Music Maestro
EXTT0=
EXTT1=
EXTT2=
EXTT3=
EXTT4=
EXTT5=
EXTT6=
EXTT7=
EXTT8=
EXTT9=
EXTT10=
EXTT11=
EXTT12=
EXTT13=
EXTT14=
PLAYORDER=
